<svg width="18" height="14" viewBox="0 0 18 14" fill="none" xmlns="http://www.w3.org/2000/svg">
<path d="M8.19204 10.757C8.19204 9.877 7.96204 9.139 7.50204 8.54C7.17604 8.128 6.73404 7.857 6.17504 7.728C5.62504 7.6 5.10504 7.591 4.63504 7.7C4.47504 6.75 4.73504 5.744 5.39504 4.678C6.05504 3.613 6.91004 2.811 7.95304 2.275L6.37304 0C5.57304 0.396 4.81304 0.898 4.11304 1.505C3.40304 2.112 2.77304 2.81 2.21304 3.599C1.65304 4.388 1.23304 5.279 0.963043 6.289C0.693043 7.299 0.617043 8.329 0.746043 9.389C0.914043 10.789 1.36604 11.909 2.10204 12.739C2.83704 13.579 3.75404 13.999 4.85004 13.999C5.81504 13.999 6.61604 13.709 7.25004 13.121C7.87804 12.545 8.19004 11.756 8.19004 10.753L8.19204 10.756V10.757ZM17.316 10.757C17.316 9.877 17.086 9.139 16.626 8.54C16.3 8.12 15.856 7.848 15.299 7.723C14.739 7.599 14.225 7.593 13.759 7.701C13.599 6.761 13.849 5.751 14.509 4.681C15.169 3.621 16.023 2.821 17.066 2.281L15.49 0C14.69 0.396 13.935 0.898 13.23 1.505C12.522 2.112 11.89 2.81 11.336 3.599C10.78 4.389 10.366 5.279 10.096 6.289C9.82304 7.289 9.75104 8.329 9.87904 9.389C10.044 10.789 10.494 11.909 11.229 12.739C11.961 13.572 12.875 13.989 13.971 13.989C14.938 13.989 15.739 13.699 16.373 13.113C17 12.537 17.315 11.748 17.315 10.745V10.755L17.316 10.757Z" fill="white"/>
</svg>
