<svg width="18" height="20" viewBox="0 0 18 20" fill="none" xmlns="http://www.w3.org/2000/svg">
<path d="M14.1695 12.3128C13.0699 12.3128 12.0855 12.8144 11.4324 13.6007L7.1837 11.1885C7.31582 10.8167 7.38844 10.4169 7.38844 10.0003C7.38844 9.58372 7.31582 9.18395 7.1837 8.81215L11.4321 6.39932C12.0851 7.18583 13.0697 7.6876 14.1693 7.6876C16.1307 7.6876 17.7265 6.09125 17.7265 4.12898C17.7267 2.1673 16.1309 0.571442 14.1695 0.571442C12.2078 0.571442 10.6119 2.1673 10.6119 4.1289C10.6119 4.54552 10.6844 4.94538 10.8166 5.31726L6.56798 7.73018C5.91492 6.94408 4.93063 6.44264 3.83131 6.44264C1.86938 6.44264 0.273193 8.03849 0.273193 10.0002C0.273193 11.9618 1.86938 13.5576 3.83131 13.5576C4.93063 13.5576 5.91483 13.0562 6.5679 12.2702L10.8166 14.6825C10.6844 15.0544 10.6118 15.4543 10.6118 15.871C10.6118 17.8326 12.2077 19.4285 14.1694 19.4285C16.1308 19.4285 17.7266 17.8326 17.7266 15.871C17.7267 13.9091 16.1309 12.3128 14.1695 12.3128ZM14.1695 1.81632C15.4445 1.81632 16.4818 2.85373 16.4818 4.1289C16.4818 5.40474 15.4445 6.44264 14.1695 6.44264C12.8942 6.44264 11.8567 5.40474 11.8567 4.1289C11.8567 2.85373 12.8942 1.81632 14.1695 1.81632ZM3.8314 12.3128C2.55589 12.3128 1.51816 11.2754 1.51816 10.0003C1.51816 8.72501 2.55589 7.6876 3.8314 7.6876C5.10641 7.6876 6.14364 8.72501 6.14364 10.0003C6.14364 11.2754 5.10632 12.3128 3.8314 12.3128ZM14.1695 18.1837C12.8942 18.1837 11.8567 17.1462 11.8567 15.8711C11.8567 14.5955 12.8942 13.5577 14.1695 13.5577C15.4445 13.5577 16.4818 14.5955 16.4818 15.8711C16.4818 17.1462 15.4445 18.1837 14.1695 18.1837Z" fill="white"/>
</svg>
